<?xml version="1.0" encoding="UTF-8" standalone="no"?>
<!-- Created with Inkscape (http://www.inkscape.org/) -->

<svg
   width="210mm"
   height="210mm"
   viewBox="0 0 210 210"
   version="1.1"
   id="svg1"
   xml:space="preserve"
   inkscape:export-filename="miu.png"
   inkscape:export-xdpi="126.75809"
   inkscape:export-ydpi="126.75809"
   inkscape:version="1.4.2 (ebf0e940, 2025-05-08)"
   sodipodi:docname="miu.svg"
   xmlns:inkscape="http://www.inkscape.org/namespaces/inkscape"
   xmlns:sodipodi="http://sodipodi.sourceforge.net/DTD/sodipodi-0.dtd"
   xmlns="http://www.w3.org/2000/svg"
   xmlns:svg="http://www.w3.org/2000/svg"><sodipodi:namedview
     id="namedview1"
     pagecolor="#ffffff"
     bordercolor="#000000"
     borderopacity="0.25"
     inkscape:showpageshadow="2"
     inkscape:pageopacity="0.0"
     inkscape:pagecheckerboard="0"
     inkscape:deskcolor="#d1d1d1"
     inkscape:document-units="mm"
     inkscape:zoom="0.72693603"
     inkscape:cx="387.24178"
     inkscape:cy="383.80268"
     inkscape:window-width="976"
     inkscape:window-height="943"
     inkscape:window-x="0"
     inkscape:window-y="25"
     inkscape:window-maximized="0"
     inkscape:current-layer="layer1" /><defs
     id="defs1" /><g
     inkscape:label="Layer 1"
     inkscape:groupmode="layer"
     id="layer1"><path
       style="fill:#ffffff;stroke-width:0.820384"
       d="m 97.34062,209.95384 c -0.537273,-0.047 -2.344449,-0.23378 -4.015948,-0.41517 -1.671508,-0.1814 -4.455536,-0.57382 -6.186734,-0.87206 -1.731198,-0.29823 -4.271019,-0.79271 -5.64404,-1.09884 -1.373021,-0.30611 -3.9972,-0.99016 -5.831509,-1.52008 -1.834309,-0.52993 -4.569497,-1.40826 -6.078195,-1.95183 -1.508698,-0.54359 -3.915311,-1.47748 -5.348028,-2.07531 -1.432718,-0.59783 -4.119063,-1.84165 -5.969656,-2.76405 -1.850593,-0.92242 -4.439252,-2.29486 -5.752576,-3.0499 -1.313325,-0.75505 -3.646174,-2.19352 -5.18411,-3.19659 -1.537934,-1.00309 -4.140919,-2.84461 -5.784409,-4.09229 -1.643491,-1.24767 -4.215435,-3.34125 -5.715432,-4.65239 -1.499997,-1.31115 -3.966851,-3.63038 -5.481899,-5.15383 -1.515047,-1.52346 -3.790122,-3.97692 -5.055721,-5.45214 -1.265599,-1.47524 -3.019425,-3.62393 -3.89739,-4.77492 -0.877966,-1.15098 -2.306108,-3.1182 -3.173651,-4.37162 -0.867543,-1.2534 -2.420212,-3.68226 -3.450376,-5.39742 -1.030164,-1.71518 -2.645072,-4.64523 -3.588686,-6.51124 -0.943614,-1.86601 -2.3219602,-4.80895 -3.062993,-6.53985 -0.7410312,-1.7309 -2.0141747,-5.1493 -2.8292074,-7.59645 C 4.4750269,136.02072 3.4101665,132.39982 2.923704,130.42141 2.4372407,128.44302 1.7495831,125.10634 1.395576,123.00662 1.0415689,120.90688 0.58274328,117.69097 0.375963,115.86018 0.0909972,113.33711 0,110.71908 0,105.04352 0,99.367935 0.0909972,96.749912 0.375963,94.226843 0.58274328,92.396046 1.0415689,89.180146 1.395576,87.080405 1.7495831,84.980674 2.4372407,81.644014 2.923704,79.665602 3.4101665,77.68719 4.4750269,74.066289 5.2900596,71.619157 6.1050923,69.172006 7.3762256,65.7536 8.1147998,64.022706 8.8533749,62.291802 10.35984,59.117563 11.462501,56.968857 c 1.102662,-2.148705 2.908867,-5.371105 4.013788,-7.160885 1.104922,-1.78978 2.802529,-4.359297 3.772461,-5.710037 0.969932,-1.350739 2.658563,-3.575829 3.752514,-4.944643 1.09395,-1.368814 3.231101,-3.846844 4.749225,-5.506735 1.518123,-1.65989 4.096594,-4.234553 5.729934,-5.721475 1.63334,-1.486921 3.604665,-3.235615 4.380719,-3.885987 0.776055,-0.650373 2.485547,-1.998453 3.798871,-2.995736 1.313325,-0.997281 3.901985,-2.807199 5.752578,-4.022039 1.850593,-1.21484 4.536939,-2.863714 5.969656,-3.664165 1.432717,-0.800451 3.874849,-2.072545 5.426959,-2.826872 1.552111,-0.7543278 4.14077,-1.9284272 5.752577,-2.6091108 C 66.173591,7.2404905 69.348362,6.0649164 71.616831,5.3087857 73.8853,4.5526559 77.353128,3.5372424 79.323114,3.0523133 81.2931,2.5673812 84.223658,1.9314579 85.835467,1.6391478 87.447268,1.3468388 89.938246,0.95817724 91.370966,0.77545646 92.803679,0.59273469 95.148127,0.34350829 96.580848,0.22161812 98.01356,0.09972796 101.77444,0 104.93836,0 c 3.16392,0 6.9248,0.09972296 8.35752,0.22161812 1.43271,0.12189017 3.77716,0.37111657 5.20988,0.55383834 1.43272,0.18272078 3.92369,0.57138234 5.53549,0.86369134 1.61181,0.2923101 4.54237,0.9294412 6.51236,1.4158481 1.96999,0.4864048 5.43781,1.5030761 7.70628,2.2592688 2.26847,0.7561928 5.44324,1.9279195 7.05504,2.603836 1.61181,0.6759195 4.54237,2.0352961 6.51236,3.0208403 1.96999,0.985543 4.55864,2.356181 5.75258,3.045861 1.19393,0.68968 3.28927,1.985835 4.65631,2.880346 1.36704,0.894511 3.56496,2.421462 4.88426,3.393224 1.31931,0.971763 3.57095,2.736559 5.00367,3.921769 1.43273,1.185211 4.15679,3.675759 6.05347,5.534552 1.8967,1.858795 4.50937,4.586161 5.80596,6.060815 1.29658,1.474651 3.36953,4.014035 4.60658,5.643073 1.23704,1.629037 3.08352,4.231576 4.1033,5.783422 1.01978,1.551844 2.61261,4.140062 3.53964,5.751594 0.92704,1.611531 2.4372,4.492753 3.35592,6.40272 0.91873,1.90996 2.08831,4.498177 2.5991,5.751593 0.51077,1.253406 1.39323,3.597455 1.96102,5.209 0.56779,1.611525 1.47976,4.541574 2.02661,6.511237 0.54685,1.969643 1.33573,5.290376 1.75306,7.379399 0.41734,2.089013 0.95555,5.312082 1.19604,7.162366 0.24049,1.850264 0.53579,4.780333 0.65623,6.511237 0.12042,1.730904 0.21896,4.953961 0.21896,7.162371 0,2.20839 -0.10093,5.43145 -0.22431,7.16235 -0.12336,1.73091 -0.41766,4.66097 -0.65399,6.51124 -0.23634,1.85027 -0.77216,5.07334 -1.1907,7.16236 -0.41856,2.08903 -1.20844,5.40976 -1.75529,7.3794 -0.54685,1.96966 -1.45882,4.89971 -2.02661,6.51124 -0.56779,1.61154 -1.45025,3.95559 -1.96102,5.209 -0.51079,1.25341 -1.68037,3.84162 -2.5991,5.75159 -0.91872,1.90996 -2.42923,4.79118 -3.35668,6.40271 -0.92744,1.61154 -2.41932,4.04836 -3.31526,5.41517 -0.89595,1.36681 -2.42421,3.56435 -3.39613,4.88342 -0.97194,1.31909 -2.73407,3.57036 -3.91585,5.00283 -1.18178,1.43247 -4.11235,4.56255 -6.51236,6.95571 -2.4,2.39317 -5.34049,5.1629 -6.53442,6.15497 -1.19394,0.99207 -3.4407,2.75172 -4.99281,3.91035 -1.55211,1.15862 -3.79887,2.74302 -4.99279,3.52089 -1.19394,0.77786 -3.29418,2.08047 -4.6672,2.89467 -1.37301,0.81421 -4.34553,2.39337 -6.60556,3.50923 -2.26004,1.11587 -5.82817,2.70566 -7.92918,3.53287 -2.101,0.82721 -5.4056,1.99383 -7.34353,2.59249 -1.93794,0.59865 -5.01241,1.43322 -6.83216,1.8546 -1.81974,0.42139 -4.72506,1.00929 -6.45627,1.30648 -1.73119,0.29717 -4.46639,0.70241 -6.07819,0.90051 -2.11339,0.25976 -5.07937,0.37572 -10.63683,0.4159 -4.23846,0.0307 -8.145868,0.0173 -8.68314,-0.0297 z m 11.8598,-2.46366 c 2.40384,-0.11234 5.72513,-0.3604 7.38066,-0.55126 1.65554,-0.19085 4.42651,-0.58799 6.1577,-0.88253 1.73121,-0.29454 4.75944,-0.9297 6.72944,-1.41148 1.96998,-0.48177 5.58433,-1.54268 8.03189,-2.35758 2.44757,-0.81489 5.8446,-2.07869 7.54898,-2.80845 1.70439,-0.72976 4.2588,-1.90818 5.67647,-2.61872 1.41768,-0.71053 3.88119,-2.04081 5.47446,-2.95615 1.59329,-0.91534 4.31388,-2.62348 6.04578,-3.79587 1.73189,-1.17237 4.31524,-3.04026 5.74078,-4.15086 1.42554,-1.1106 3.93178,-3.2139 5.5694,-4.67402 1.63763,-1.46012 4.1521,-3.90184 5.5877,-5.42604 1.43561,-1.52419 3.42444,-3.74796 4.41966,-4.94168 0.9952,-1.19373 2.57501,-3.19593 3.51069,-4.44934 0.93568,-1.25342 2.31872,-3.20678 3.07345,-4.34083 0.75472,-1.13405 2.01908,-3.13625 2.80968,-4.44935 0.7906,-1.31309 2.30192,-4.09665 3.35848,-6.18567 1.05657,-2.08903 2.47683,-5.11676 3.15613,-6.72829 0.67929,-1.61153 1.8582,-4.78575 2.61978,-7.05385 0.76158,-2.26807 1.77412,-5.68646 2.25009,-7.59643 0.47596,-1.90996 1.11167,-4.84002 1.41266,-6.51123 0.30101,-1.67123 0.69276,-4.21061 0.87056,-5.64309 0.17781,-1.43247 0.42482,-3.91812 0.54889,-5.52368 0.12409,-1.60554 0.22521,-4.87743 0.22472,-7.27087 -4.8e-4,-2.39344 -0.10127,-5.719068 -0.22397,-7.390283 -0.1227,-1.671224 -0.37284,-4.20999 -0.55589,-5.641715 -0.18303,-1.431726 -0.52484,-3.726943 -0.75958,-5.100479 -0.23474,-1.373525 -0.90888,-4.455408 -1.49809,-6.848619 -0.58922,-2.393221 -1.65806,-6.066443 -2.37523,-8.162705 -0.71716,-2.096262 -1.85034,-5.109027 -2.51818,-6.695006 -0.66785,-1.585999 -1.93198,-4.316382 -2.80917,-6.067569 -0.8772,-1.751168 -2.15162,-4.154305 -2.83204,-5.340306 -0.68042,-1.185997 -2.06853,-3.426049 -3.0847,-4.977895 -1.01616,-1.551845 -2.80136,-4.091228 -3.9671,-5.643074 -1.16574,-1.551844 -3.11174,-3.969905 -4.32445,-5.373466 -1.21271,-1.403561 -3.39908,-3.747609 -4.8586,-5.208991 -1.45951,-1.461383 -3.68867,-3.56606 -4.95367,-4.677058 -1.265,-1.110998 -3.36336,-2.849971 -4.66302,-3.864385 -1.29966,-1.014414 -3.77945,-2.799831 -5.51065,-3.967592 -1.73121,-1.16776 -3.88028,-2.563889 -4.77573,-3.102505 -0.89544,-0.538616 -2.82683,-1.632249 -4.29197,-2.430295 -1.46513,-0.798047 -3.84653,-1.992036 -5.29197,-2.653309 -1.44546,-0.661274 -3.47032,-1.54529 -4.49971,-1.964481 -1.02938,-0.4191916 -3.1941,-1.2316707 -4.81049,-1.8055106 -1.61639,-0.573839 -4.35157,-1.4365095 -6.07819,-1.9170464 -1.72662,-0.4805359 -4.2627,-1.1214253 -5.63572,-1.4241996 -1.37301,-0.3027732 -3.61978,-0.7435859 -4.9928,-0.9795825 -1.37302,-0.2359967 -3.85093,-0.5858349 -5.50647,-0.7774202 -1.65553,-0.1915832 -4.9524,-0.4369573 -7.32639,-0.5452738 -2.58383,-0.1178908 -6.04883,-0.1178908 -8.63265,0 -2.373985,0.1083165 -5.670868,0.3536906 -7.326398,0.5452738 -1.65554,0.1915853 -4.133447,0.5415065 -5.506469,0.7776011 -1.373022,0.2360977 -3.766308,0.7119853 -5.318422,1.0575303 -1.552111,0.3455449 -4.356177,1.0690423 -6.231257,1.6077722 -1.875081,0.5387299 -4.756796,1.4825706 -6.403812,2.0974245 -1.647016,0.6148529 -3.922585,1.5088662 -5.05682,1.9866932 -1.134234,0.477829 -3.576366,1.624898 -5.426959,2.549042 -1.850593,0.924144 -4.341568,2.240875 -5.5355,2.926069 -1.193931,0.685193 -3.831433,2.35382 -5.861116,3.708058 -2.029683,1.354238 -4.76487,3.315227 -6.078194,4.357752 -1.313324,1.042525 -3.413558,2.796937 -4.667185,3.898694 -1.253628,1.101756 -3.750237,3.502768 -5.548018,5.33558 -1.797782,1.832813 -4.20118,4.455575 -5.340886,5.828362 -1.139704,1.372786 -2.828534,3.516665 -3.752956,4.764174 -0.92442,1.24751 -2.392636,3.347385 -3.262702,4.666388 -0.870065,1.319003 -2.392274,3.811708 -3.382687,5.539343 -0.990413,1.727636 -2.50619,4.608851 -3.368394,6.402721 -0.862204,1.793853 -2.203257,4.873097 -2.9801197,6.84274 -0.7768623,1.969654 -1.8162892,4.850871 -2.3098379,6.402716 -0.4935479,1.551845 -1.330345,4.579577 -1.8595483,6.72828 -0.5292042,2.148713 -1.2009085,5.32294 -1.4926767,7.053844 -0.2917689,1.730905 -0.7077084,4.612132 -0.9243099,6.402716 -0.3122146,2.580999 -0.3935014,4.852231 -0.3922741,10.960602 0.00126,6.02243 0.086065,8.41588 0.3885798,10.96057 0.2128669,1.7906 0.6281091,4.67183 0.9227618,6.40272 0.2946518,1.7309 0.9687149,4.90513 1.4979191,7.05385 0.5292033,2.14871 1.3666775,5.17643 1.8610527,6.72827 0.4943753,1.55185 1.5709487,4.53074 2.3923856,6.61976 0.8214366,2.08903 2.2118186,5.26325 3.0897396,7.05385 0.877921,1.79059 2.260615,4.42764 3.072655,5.86012 0.812041,1.43246 2.305009,3.87417 3.317707,5.42602 1.012697,1.55185 2.794881,4.09123 3.960407,5.64307 1.165526,1.55185 3.083091,3.94473 4.261255,5.31751 1.178163,1.37279 3.510057,3.86369 5.181987,5.53533 1.671929,1.67164 4.163252,4.00313 5.536273,5.1811 1.373021,1.17797 3.766309,3.09524 5.31842,4.2606 1.55211,1.16538 4.107398,2.95493 5.678416,3.97678 1.571018,1.02186 4.01315,2.51592 5.42696,3.32013 1.413809,0.80421 4.133527,2.21469 6.043816,3.1344 1.910291,0.9197 4.840849,2.21085 6.512352,2.8692 1.671503,0.65837 4.576475,1.69251 6.455492,2.2981 1.879017,0.6056 5.004946,1.49143 6.946508,1.96852 1.941563,0.4771 4.946555,1.10868 6.677753,1.40351 1.731198,0.29484 4.564072,0.69929 6.29527,0.89876 1.731198,0.19946 4.710603,0.43421 6.620892,0.52165 1.91029,0.0875 3.76631,0.17206 4.12449,0.18803 0.35818,0.016 2.618,-0.0628 5.02183,-0.17519 z m -5.56453,-6.98704 c 0,-0.14055 0.29065,-1.04452 0.64588,-2.0088 0.35522,-0.96428 1.41141,-3.55346 2.34708,-5.75373 0.93567,-2.20029 1.81124,-4.03717 1.94573,-4.08199 0.13448,-0.0448 1.71003,2.38503 3.5012,5.39966 1.79117,3.01466 3.20784,5.56016 3.14815,5.65673 -0.0596,0.0966 -0.57858,0.17554 -1.15311,0.17554 -0.95015,0 -1.09128,-0.0686 -1.561,-0.75815 -0.49491,-0.72661 -0.57156,-0.75823 -1.84131,-0.75964 -0.72869,-8.2e-4 -1.93521,0.0622 -2.68116,0.14024 -1.34313,0.14036 -1.36005,0.15058 -1.74733,1.05387 -0.21507,0.50168 -0.55508,0.97506 -0.75557,1.05199 -0.20048,0.0769 -0.69842,0.13985 -1.10654,0.13985 -0.42453,0 -0.74202,-0.10934 -0.74202,-0.25557 z m 6.50048,-4.50741 c 0.2687,-0.16997 0.25525,-0.30709 -0.0937,-0.95495 -0.22411,-0.41607 -0.57914,-0.98405 -0.78897,-1.26218 l -0.38149,-0.50567 -0.4426,0.97562 c -0.24343,0.53658 -0.44474,1.19538 -0.44736,1.46396 -0.004,0.43109 0.1034,0.48796 0.91781,0.48502 0.50742,-0.002 1.06377,-0.0926 1.23633,-0.2018 z m -11.785272,3.64673 c -0.182826,-0.28135 -1.315306,-2.82927 -2.516615,-5.66203 -1.201309,-2.83277 -2.184193,-5.35309 -2.184193,-5.60071 0,-0.40154 0.111165,-0.44307 1.028143,-0.38406 l 1.028143,0.0661 0.949133,2.17041 c 0.522026,1.19373 1.234313,2.79766 1.582871,3.56427 0.497842,1.09497 0.690614,1.33749 0.89901,1.13104 0.145899,-0.14454 1.04941,-1.60196 2.0078,-3.23869 l 1.74254,-2.9759 1.13376,-0.0656 c 0.90075,-0.0521 1.13375,0.003 1.13375,0.26591 0,0.18233 -1.36731,2.69724 -3.03846,5.58868 -1.67116,2.89142 -3.127348,5.346 -3.235968,5.4546 -0.118617,0.1186 -0.330272,-0.007 -0.529914,-0.31406 z m 21.457972,-1.14339 c -0.15893,-0.24934 -0.66071,-2.2891 -1.11507,-4.5328 -0.45436,-2.24369 -0.89195,-4.18596 -0.97243,-4.31614 -0.10476,-0.16949 -0.65069,-0.15485 -1.92183,0.0515 -1.52956,0.24836 -1.80294,0.24494 -1.97355,-0.0247 -0.10892,-0.17212 -0.19954,-0.61919 -0.20137,-0.99349 l -0.003,-0.68053 2.33358,-0.56886 c 1.28348,-0.31287 3.39197,-0.76868 4.68552,-1.0129 1.86376,-0.35189 2.41799,-0.38924 2.67019,-0.17996 0.19915,0.16526 0.29385,0.55536 0.25302,1.04232 l -0.0652,0.77822 -1.68236,0.40937 c -1.27057,0.30918 -1.68235,0.49887 -1.68235,0.77499 0,0.20108 0.39024,2.30268 0.86719,4.67021 0.60723,3.01416 0.80036,4.38511 0.64425,4.57318 -0.12261,0.14771 -0.52092,0.3123 -0.8851,0.36574 -0.50132,0.0736 -0.73235,-0.0129 -0.95112,-0.35622 z m -36.291085,-0.48322 c -0.498558,-0.17663 -1.345123,-0.70719 -1.881254,-1.17904 -0.536132,-0.47183 -1.19895,-1.32072 -1.47293,-1.8864 -0.369871,-0.76365 -0.500324,-1.41972 -0.506607,-2.54777 -0.0069,-1.237 0.104917,-1.75014 0.601733,-2.7617 0.335609,-0.68333 1.015139,-1.58895 1.510067,-2.01252 0.494929,-0.42357 1.385873,-0.91443 1.979875,-1.0908 0.594002,-0.17637 1.435287,-0.32067 1.869517,-0.32067 0.43423,0 1.304948,0.15304 1.934923,0.3401 0.730305,0.21683 1.503869,0.6691 2.134533,1.24797 0.544026,0.49935 1.217588,1.39625 1.496812,1.99312 0.376824,0.80547 0.503975,1.44884 0.49329,2.49596 -0.0084,0.77592 -0.129066,1.72176 -0.269228,2.10185 -0.140154,0.38008 -0.560902,1.1237 -0.934996,1.65246 -0.47864,0.67657 -1.083826,1.16309 -2.042644,1.64213 -1.101736,0.55044 -1.615505,0.67745 -2.684556,0.66359 -0.72713,-0.009 -1.729972,-0.16165 -2.228535,-0.33828 z m 4.291953,-2.56263 c 0.44819,-0.29654 0.995803,-0.9408 1.255405,-1.47699 0.253251,-0.52305 0.459908,-1.18876 0.459245,-1.47935 -6.64e-4,-0.29058 -0.100288,-0.88497 -0.221382,-1.32087 -0.127596,-0.45932 -0.578265,-1.11599 -1.071874,-1.56187 -0.468443,-0.42314 -1.223569,-0.86846 -1.67806,-0.9896 -0.516373,-0.13764 -1.14576,-0.14743 -1.677858,-0.0261 -0.468333,0.1068 -1.103288,0.38056 -1.411011,0.60837 -0.307722,0.2278 -0.779288,0.73707 -1.047922,1.13171 -0.357667,0.52543 -0.488427,1.03139 -0.488427,1.88994 0,0.64482 0.137247,1.43614 0.304993,1.75848 0.167745,0.32235 0.534763,0.80059 0.815593,1.06275 0.280832,0.26215 0.851803,0.62988 1.26883,0.81714 0.496347,0.22291 1.093117,0.3011 1.727871,0.22644 0.533299,-0.0627 1.327368,-0.35075 1.764597,-0.64006 z m 41.276152,-1.45484 c -0.47607,-1.23579 -1.31749,-3.63259 -1.86982,-5.32623 -0.55233,-1.69365 -1.00423,-3.2369 -1.00423,-3.42948 0,-0.19758 0.34441,-0.494 0.79053,-0.68036 0.65446,-0.27341 0.83645,-0.28084 1.05735,-0.0432 0.14674,0.15789 1.07623,2.66116 2.06551,5.56281 1.55389,4.55768 1.75675,5.31768 1.49042,5.58397 -0.16956,0.16952 -0.61336,0.36923 -0.98622,0.44379 l -0.67795,0.13556 z m -56.806728,-1.85651 c -0.561733,-1.28906 -1.415243,-3.24717 -1.896689,-4.35137 -0.481446,-1.1042 -0.941025,-2.00763 -1.021288,-2.00763 -0.08026,0 -0.745309,1.26969 -1.47788,2.82154 -1.152333,2.44104 -1.400243,2.8206 -1.838408,2.81463 -0.278554,-0.004 -0.67741,-0.13665 -0.886348,-0.29523 -0.208938,-0.15858 -0.379887,-0.47755 -0.379887,-0.70883 0,-0.23128 0.988375,-2.56456 2.19639,-5.18507 1.208015,-2.6205 2.282187,-4.85697 2.387049,-4.96993 0.116913,-0.12594 0.311393,-0.042 0.502799,0.21703 0.171677,0.23233 1.06105,2.18046 1.976385,4.32917 0.915334,2.14871 1.746833,3.99427 1.847773,4.10125 0.103086,0.10925 0.800479,-1.10366 1.591112,-2.76727 0.774172,-1.62899 1.459913,-2.96179 1.523868,-2.96179 0.06396,0 0.461496,0.16459 0.883423,0.36576 0.52554,0.25057 0.762256,0.50689 0.751633,0.8139 -0.0085,0.24649 -1.015365,2.5966 -2.237416,5.22247 -1.350493,2.90186 -2.355113,4.79996 -2.561545,4.8397 -0.24554,0.0473 -0.622596,-0.58392 -1.360971,-2.27833 z m 64.856968,-0.16019 c -0.49856,-0.15587 -1.24519,-0.49269 -1.65916,-0.74849 -0.41397,-0.25581 -1.01404,-0.80771 -1.33347,-1.22643 -0.31943,-0.41872 -0.73137,-1.20319 -0.91542,-1.74326 -0.2198,-0.64496 -0.30421,-1.48117 -0.24598,-2.43666 0.05,-0.82021 0.27132,-1.83342 0.50743,-2.3229 0.23035,-0.47749 0.83752,-1.27587 1.34928,-1.77414 0.56752,-0.55259 1.36401,-1.04996 2.0419,-1.27508 0.77997,-0.25902 1.54029,-0.33841 2.54941,-0.26623 0.79089,0.0566 1.75335,0.26593 2.13882,0.46522 0.38546,0.19931 1.05033,0.66917 1.47749,1.04416 0.42715,0.37498 1.03591,1.17892 1.35278,1.78653 0.46003,0.8821 0.57753,1.41092 0.58303,2.62403 0.006,1.23497 -0.10731,1.75179 -0.60332,2.76168 -0.33561,0.68333 -1.01514,1.58896 -1.51006,2.01253 -0.49493,0.42357 -1.38587,0.91442 -1.97988,1.09079 -0.594,0.17637 -1.47743,0.31415 -1.96318,0.30616 -0.48576,-0.008 -1.29111,-0.14205 -1.78967,-0.29791 z m 3.9841,-2.64118 c 0.32224,-0.24054 0.78097,-0.6986 1.01939,-1.01789 0.27804,-0.37233 0.46642,-1.03529 0.52524,-1.84849 0.071,-0.98049 -0.009,-1.4657 -0.35331,-2.14017 -0.24478,-0.47972 -0.69005,-1.03273 -0.9895,-1.22889 -0.29945,-0.19618 -0.98041,-0.47326 -1.51325,-0.61576 -0.75364,-0.20153 -1.16367,-0.2007 -1.84614,0.004 -0.48254,0.14454 -1.16778,0.50715 -1.52275,0.8058 -0.35499,0.29865 -0.81169,0.97827 -1.01491,1.51028 -0.25862,0.6771 -0.32557,1.245 -0.22316,1.89294 0.0805,0.50911 0.3764,1.27494 0.65762,1.70186 0.28122,0.42692 0.83863,0.94286 1.2387,1.14654 0.51723,0.26336 1.11868,0.3497 2.08178,0.29887 0.93392,-0.0493 1.53628,-0.20726 1.94029,-0.50883 z m -80.994606,-1.36433 c -0.06842,-0.11068 -0.563719,-2.04123 -1.100677,-4.29011 -0.536958,-2.24888 -1.026861,-4.30862 -1.088675,-4.57721 -0.06182,-0.2686 -0.202207,-0.48835 -0.311981,-0.48835 -0.109777,0 -0.949319,1.08168 -1.86565,2.40372 -0.916332,1.32204 -1.809135,2.4586 -1.984007,2.5257 -0.174872,0.0671 -0.578955,-0.0728 -0.897964,-0.31099 -0.319008,-0.23813 -0.580016,-0.5919 -0.580016,-0.78614 0,-0.19424 1.416438,-2.40159 3.147637,-4.90522 1.731201,-2.50362 3.245323,-4.52571 3.364715,-4.49354 0.119393,0.0322 0.739998,2.17681 1.379121,4.76586 0.639123,2.58905 1.231863,4.70736 1.3172,4.70736 0.08534,0 0.86389,-1.01685 1.730117,-2.25966 0.866229,-1.24281 1.743682,-2.41232 1.949897,-2.59891 0.341969,-0.30943 0.435677,-0.29681 1.065769,0.14351 0.379958,0.2655 0.692521,0.59231 0.694585,0.72622 0.002,0.13389 -0.497826,1.0129 -1.110864,1.95336 -0.613039,0.94046 -2.028019,2.99736 -3.144404,4.5709 -1.116384,1.57355 -2.122179,2.91808 -2.2351,2.98786 -0.112921,0.0698 -0.261287,0.0364 -0.329703,-0.0744 z m 87.766506,-6.15056 c -1.69935,-2.17648 -3.24126,-4.22122 -3.42645,-4.54385 -0.1852,-0.32263 -0.27279,-0.65052 -0.19465,-0.72866 0.0781,-0.0781 2.26874,0.0106 4.86798,0.19715 2.59925,0.18657 4.77173,0.29339 4.82774,0.2374 0.056,-0.056 -0.7972,-1.2747 -1.89602,-2.70822 l -1.99786,-2.6064 0.54163,-0.54153 c 0.29789,-0.29783 0.67922,-0.54153 0.8474,-0.54153 0.16818,0 0.73594,0.46393 1.26169,1.03096 0.52574,0.56701 1.54751,1.76346 2.27057,2.65875 0.72307,0.89529 1.86924,2.36902 2.54706,3.27494 0.67781,0.90592 1.23238,1.80936 1.23238,2.00763 0,0.24968 -0.18352,0.35912 -0.59697,0.35599 -0.32833,-0.003 -2.30646,-0.14697 -4.39584,-0.32105 -2.08937,-0.17409 -4.01866,-0.31855 -4.28729,-0.32104 -0.26864,-0.003 -0.48843,0.0761 -0.48843,0.17466 0,0.0986 0.79309,1.19734 1.76241,2.44172 0.96932,1.24439 1.81201,2.38958 1.87263,2.54487 0.0606,0.1553 -0.11454,0.52155 -0.38924,0.81391 -0.27471,0.29236 -0.67261,0.53156 -0.88423,0.53156 -0.24127,0 -1.53712,-1.47591 -3.47451,-3.95726 z m -100.115611,-2.94787 -0.598509,-0.62461 2.357284,-2.69212 c 1.296505,-1.48065 3.097829,-3.47345 4.002941,-4.42843 l 1.645658,-1.73632 0.618626,0.45585 c 0.340243,0.25072 0.642238,0.64139 0.671098,0.86817 0.0345,0.27109 -1.23224,1.82421 -3.698543,4.5347 -2.06306,2.26731 -3.89705,4.15051 -4.075532,4.18487 -0.178483,0.0344 -0.593842,-0.21858 -0.923023,-0.56211 z m 116.071691,-4.21823 c -0.23542,-0.26859 -0.5543,-0.65546 -0.70863,-0.85971 -0.24841,-0.32876 0.25321,-0.90136 4.3731,-4.99194 2.79791,-2.778 5.57354,-5.77923 6.96029,-7.52604 1.26861,-1.59798 3.27298,-4.33269 4.45415,-6.07715 1.18118,-1.74444 2.70573,-4.141 3.38789,-5.32567 0.68217,-1.18466 1.86168,-3.39377 2.62114,-4.90909 0.75947,-1.51533 1.86844,-3.91562 2.4644,-5.33398 0.59595,-1.41835 1.5826,-4.04385 2.19253,-5.83446 0.60994,-1.79058 1.54126,-5.01364 2.06961,-7.16235 0.52835,-2.14871 1.153,-5.03091 1.38811,-6.40489 0.23512,-1.37397 0.60085,-3.91336 0.81275,-5.64308 0.28709,-2.3434 0.38472,-4.7214 0.38311,-9.3306 -0.002,-4.51549 -0.10534,-7.064725 -0.38429,-9.441289 -0.21018,-1.790594 -0.61938,-4.658034 -0.90934,-6.372091 -0.28995,-1.714047 -0.91139,-4.644096 -1.38096,-6.511237 -0.46957,-1.867131 -1.2406,-4.566799 -1.71338,-5.999274 -0.47278,-1.432476 -1.24883,-3.581188 -1.72458,-4.774904 -0.47574,-1.193726 -1.36385,-3.260663 -1.97359,-4.593185 -0.60974,-1.332523 -1.7115,-3.530067 -2.44837,-4.883436 -0.73687,-1.353368 -2.06463,-3.607254 -2.95061,-5.008664 -0.88595,-1.401397 -2.25767,-3.452439 -3.04825,-4.557863 -0.79058,-1.105424 -1.97953,-2.693541 -2.64209,-3.52915 -0.66257,-0.83561 -2.04812,-2.495976 -3.07901,-3.689702 -1.0309,-1.193727 -3.27901,-3.537794 -4.9958,-5.20904 -1.7168,-1.671243 -4.41235,-4.072504 -5.99011,-5.336134 -1.57776,-1.263631 -4.01989,-3.079391 -5.42696,-4.035026 -1.40706,-0.955634 -3.65721,-2.397124 -5.00034,-3.203313 -1.34313,-0.806189 -2.49492,-1.551337 -2.55955,-1.655887 -0.0647,-0.104549 0.0452,-0.51038 0.24412,-0.901847 0.1989,-0.391467 0.45666,-0.830951 0.57282,-0.976633 0.16275,-0.204116 0.41796,-0.161132 1.11253,0.187384 0.49573,0.248742 2.10299,1.198119 3.57165,2.109726 1.46868,0.911607 3.87794,2.536484 5.35391,3.610839 1.47597,1.074354 3.69331,2.797126 4.92742,3.828381 1.23412,1.031254 3.21304,2.788958 4.3976,3.906006 1.18457,1.117049 3.18135,3.154518 4.43729,4.527709 1.25593,1.37319 3.25465,3.717569 4.4416,5.209727 1.18695,1.492159 3.25444,4.373382 4.59443,6.402718 1.33998,2.029334 2.92587,4.568724 3.52419,5.643077 0.59833,1.074356 1.58141,2.937038 2.18463,4.139283 0.60322,1.202254 1.65047,3.497462 2.3272,5.100468 0.67674,1.603016 1.753,4.477255 2.39168,6.387218 0.63868,1.909964 1.51075,4.826485 1.93791,6.481162 0.42717,1.654668 1.01337,4.291727 1.30265,5.860109 0.2893,1.568392 0.67618,4.023642 0.85976,5.456117 0.18356,1.432476 0.44666,4.167188 0.58465,6.077152 0.14837,2.053729 0.19561,5.157649 0.11562,7.596449 -0.0744,2.26809 -0.28672,5.53998 -0.47183,7.27088 -0.18512,1.73092 -0.48304,4.07497 -0.66205,5.20899 -0.17901,1.13405 -0.56913,3.23392 -0.86693,4.66639 -0.29781,1.43248 -0.83412,3.69853 -1.1918,5.03569 -0.35769,1.33716 -1.17517,3.97421 -1.81663,5.86012 -0.64145,1.88591 -1.62182,4.49347 -2.17859,5.7946 -0.55677,1.30114 -1.63281,3.60377 -2.3912,5.11694 -0.75839,1.5132 -1.93763,3.72053 -2.62053,4.9052 -0.6829,1.18467 -2.19879,3.57015 -3.36865,5.30104 -1.16985,1.73091 -3.01505,4.26553 -4.10042,5.63251 -1.08537,1.36699 -2.97187,3.60497 -4.19221,4.97331 -1.22034,1.36834 -3.61283,3.79039 -5.31665,5.38233 -1.70381,1.59194 -3.17649,2.89445 -3.2726,2.89445 -0.0961,0 -0.36737,-0.21976 -0.60279,-0.48834 z M 39.437519,169.55903 c -1.767897,-1.76075 -4.091299,-4.25992 -5.163117,-5.55373 -1.071817,-1.29381 -2.804702,-3.52664 -3.850854,-4.96184 -1.046153,-1.43522 -2.703102,-3.89271 -3.682109,-5.46112 -0.979005,-1.5684 -2.720747,-4.70734 -3.870536,-6.97543 -1.14979,-2.26808 -2.681159,-5.63764 -3.403042,-7.48792 -0.721883,-1.85028 -1.672868,-4.48454 -2.113301,-5.85394 -0.440431,-1.36937 -1.185092,-4.02022 -1.654803,-5.89075 -0.469709,-1.87052 -1.094159,-4.81828 -1.387665,-6.55055 -0.293506,-1.73227 -0.685053,-4.59112 -0.870105,-6.35295 -0.185052,-1.76185 -0.397015,-4.97002 -0.471029,-7.12923 -0.08019,-2.33912 -0.0293,-5.41718 0.125892,-7.615566 0.143255,-2.029344 0.45178,-5.131493 0.685612,-6.893672 0.233832,-1.762179 0.670808,-4.44806 0.971059,-5.96863 0.300252,-1.52057 0.879464,-4.034381 1.287143,-5.586225 0.407676,-1.551835 1.096226,-3.895884 1.530111,-5.20898 0.433886,-1.313106 1.26741,-3.608313 1.85228,-5.100468 0.584869,-1.492165 1.850219,-4.315673 2.81189,-6.274468 0.96167,-1.958775 2.298374,-4.498171 2.970451,-5.64306 0.672078,-1.14491 2.004061,-3.253662 2.959963,-4.686136 0.955901,-1.432473 2.472252,-3.576195 3.36967,-4.763828 0.897416,-1.187633 2.508759,-3.180888 3.58076,-4.429452 1.072002,-1.248566 2.934156,-3.294067 4.13812,-4.545559 1.203964,-1.251493 3.410093,-3.348491 4.902506,-4.659995 1.492414,-1.311505 3.788018,-3.19023 5.101343,-4.174945 1.313324,-0.984715 3.560085,-2.573929 4.992802,-3.531588 1.432717,-0.957658 3.248007,-2.092766 4.033978,-2.522463 0.78597,-0.429695 1.577038,-0.781265 1.757928,-0.781265 0.18089,0 0.510858,0.403464 0.733264,0.896586 l 0.404372,0.896585 -0.534213,0.415064 c -0.293817,0.228287 -2.292547,1.574844 -4.441623,2.992352 -2.149077,1.417507 -4.957262,3.399432 -6.240414,4.404279 -1.283151,1.004847 -3.309551,2.683716 -4.503109,3.730822 -1.193559,1.047105 -3.439971,3.218554 -4.992029,4.825443 -1.552058,1.606889 -3.777654,4.111364 -4.94577,5.565501 -1.168116,1.454137 -2.722351,3.486447 -3.453855,4.516244 -0.731505,1.029798 -1.906549,2.787831 -2.61121,3.906743 -0.704661,1.118916 -1.8525,3.052607 -2.550753,4.297125 -0.698254,1.244507 -1.850627,3.486424 -2.56083,4.982038 -0.710202,1.495615 -1.761196,3.895784 -2.335542,5.333709 -0.574345,1.437914 -1.430709,3.737601 -1.903033,5.110386 -0.472322,1.372776 -1.209075,3.86333 -1.637228,5.534544 -0.428153,1.671215 -1.069418,4.601284 -1.425033,6.511237 -0.355615,1.909964 -0.800132,4.865809 -0.987814,6.568558 -0.187683,1.702739 -0.401958,4.828134 -0.476166,6.945324 -0.07793,2.22319 -0.0274,5.49084 0.119584,7.73478 0.139979,2.13694 0.396817,4.96933 0.57075,6.2942 0.173932,1.32486 0.515775,3.53203 0.75965,4.90481 0.243875,1.37279 0.784291,3.86334 1.200923,5.53456 0.416633,1.67121 1.332465,4.75091 2.035184,6.84375 0.702719,2.09284 1.828783,5.07173 2.502364,6.61976 0.67358,1.54802 1.935802,4.18194 2.804938,5.85316 0.869134,1.67123 2.255187,4.13657 3.080116,5.47857 0.824929,1.34198 2.303579,3.59475 3.285889,5.00615 0.98231,1.41138 2.833866,3.82946 4.11457,5.3735 1.280702,1.54403 3.676187,4.18384 5.323298,5.86624 1.647112,1.6824 2.994748,3.16434 2.994748,3.29323 0,0.12887 -0.252897,0.53482 -0.561993,0.9021 -0.309096,0.36727 -0.696461,0.66777 -0.860808,0.66777 -0.16435,0 -1.745278,-1.44061 -3.513174,-3.20136 z m 111.549671,-4.81657 c -3.47829,-4.29048 -6.40462,-7.8506 -6.50295,-7.91135 -0.0983,-0.0608 -0.4055,0.78816 -0.6826,1.8865 -0.2771,1.09835 -0.58222,2.08476 -0.67805,2.19204 -0.10068,0.11271 -0.3851,0.0551 -0.67379,-0.13636 -0.27477,-0.18227 -3.21841,-2.92968 -6.54141,-6.10534 l -6.04184,-5.77396 -1.24841,0.84765 c -0.68664,0.4662 -2.16827,1.3384 -3.29254,1.93821 -1.12427,0.59981 -3.03071,1.48102 -4.23656,1.95822 -1.20584,0.4772 -3.30609,1.16323 -4.66719,1.52453 -1.3611,0.36131 -3.45159,0.81917 -4.64552,1.01748 -1.46779,0.24381 -3.43617,0.35939 -6.07819,0.35692 -2.43053,-0.003 -4.78719,-0.13406 -6.235067,-0.34861 -1.280211,-0.18972 -3.103666,-0.54305 -4.052118,-0.78516 -0.948453,-0.24212 -2.036748,-0.44023 -2.418419,-0.44023 -0.496045,0 -1.926154,0.72732 -5.014514,2.55024 -4.173617,2.4635 -4.328574,2.5797 -4.556469,3.41642 -0.129754,0.47638 -0.419265,1.12361 -0.643354,1.43826 -0.224091,0.31466 -0.741602,0.73064 -1.150025,0.92441 -0.408422,0.19379 -1.139671,0.35232 -1.624997,0.35232 -0.485326,0 -1.211171,-0.15673 -1.612988,-0.34833 -0.708575,-0.33783 -0.792152,-0.32531 -2.775115,0.41565 -1.124496,0.42018 -2.630649,0.90944 -3.347008,1.08726 -0.716359,0.1778 -1.748908,0.38479 -2.294552,0.45997 -0.545646,0.0752 -1.21361,0.0547 -1.484364,-0.0454 -0.389649,-0.14411 -0.431731,-0.22804 -0.201849,-0.40259 0.159739,-0.12129 1.511499,-0.68369 3.003912,-1.24979 1.492414,-0.56611 3.250749,-1.29813 3.907411,-1.62675 l 1.193931,-0.59745 0.161451,-1.28799 c 0.0888,-0.7084 0.338729,-1.53217 0.555404,-1.8306 0.216675,-0.29843 0.827819,-0.76867 1.358099,-1.04496 0.712018,-0.371 1.206685,-0.47714 1.891637,-0.40593 0.51012,0.0531 1.28819,0.33576 1.729043,0.62826 l 0.801549,0.53184 2.069828,-1.19247 c 1.13841,-0.65587 3.632798,-2.16817 5.543084,-3.36068 1.910294,-1.19253 4.645477,-2.95246 6.078198,-3.91095 1.432712,-0.95849 4.656332,-3.20494 7.163592,-4.99209 2.50724,-1.78717 6.56118,-4.76651 9.00874,-6.62077 2.44756,-1.85426 5.67117,-4.35058 7.16359,-5.54735 1.49241,-1.19678 4.12991,-3.34926 5.86111,-4.78329 1.73121,-1.43405 4.68213,-3.95164 6.55764,-5.59466 1.8755,-1.64302 4.75564,-4.23352 6.40032,-5.75664 1.64467,-1.52314 4.82349,-4.59936 7.06404,-6.83605 l 4.0737,-4.0667 v -1.12802 c 0,-0.69402 0.16826,-1.46753 0.43731,-2.01045 0.24053,-0.48534 0.70009,-1.07299 1.02126,-1.30588 0.36221,-0.26265 1.05842,-0.45776 1.83339,-0.5138 l 1.24944,-0.0904 2.0283,-2.6333 c 1.11557,-1.448313 2.50019,-3.298947 3.07693,-4.112537 0.63325,-0.893308 1.1272,-1.400671 1.24701,-1.280872 0.11981,0.11979 -0.0228,0.785766 -0.35988,1.681313 -0.30705,0.815631 -1.39872,2.786104 -2.42592,4.378832 l -1.86765,2.895874 0.35316,0.92456 c 0.19424,0.50852 0.35317,1.30046 0.35317,1.75987 0,0.46595 -0.19875,1.15679 -0.44947,1.56242 -0.2472,0.3999 -0.74418,0.93694 -1.1044,1.19339 -0.39355,0.28019 -1.01558,0.47625 -1.55852,0.49127 -0.49697,0.0138 -1.22721,-0.057 -1.6228,-0.15708 -0.70021,-0.17729 -0.77043,-0.12852 -2.65776,1.8458 l -1.93856,2.02788 -0.006,3.68971 c -0.003,2.02933 -0.146,4.66639 -0.31783,5.86011 -0.17183,1.19373 -0.37485,2.47395 -0.45114,2.84495 l -0.13873,0.67452 3.65702,2.12003 c 2.01138,1.16602 4.24315,2.53669 4.9595,3.04593 0.71636,0.50926 1.54669,1.18993 1.84517,1.51264 0.29848,0.32269 0.78691,0.71089 1.0854,0.86264 0.29847,0.15178 0.90614,0.34171 1.35035,0.42211 0.4442,0.0804 1.10708,0.39808 1.47307,0.70599 0.36598,0.30789 0.80844,0.83634 0.98324,1.17431 0.1748,0.33797 0.31746,1.08326 0.317,1.6562 -5e-4,0.65627 -0.16042,1.30349 -0.43217,1.74911 -0.23724,0.38905 -0.74973,0.90144 -1.13884,1.13865 -0.45759,0.27895 -1.09088,0.43104 -1.79288,0.43058 -0.59697,-3.9e-4 -2.20878,0.1501 -3.5818,0.33443 -1.37302,0.18432 -2.91109,0.38625 -3.41796,0.44874 -0.50684,0.0625 -1.19064,0.33813 -1.51954,0.61254 -0.32889,0.2744 -0.91062,0.65916 -1.29273,0.85502 -0.38209,0.19585 -0.99577,0.3561 -1.3637,0.3561 -0.36794,0 -0.98333,-0.13334 -1.36752,-0.29631 -0.38419,-0.16296 -0.96601,-0.60031 -1.29291,-0.9719 -0.32691,-0.37158 -0.81533,-0.72772 -1.08539,-0.79143 -0.27006,-0.0637 -1.2725,-0.19898 -2.22764,-0.30066 -0.95515,-0.10168 -1.74426,-0.17379 -1.75358,-0.16027 -0.009,0.0135 -0.57881,0.72872 -1.26552,1.5893 l -1.24856,1.56472 1.37405,2.653 c 0.75573,1.45915 1.47173,2.68362 1.59114,2.72104 0.11939,0.0374 0.55897,-1.22481 0.97684,-2.80491 0.53432,-2.02038 0.86061,-2.89206 1.09957,-2.93742 0.25361,-0.0481 2.22178,3.79437 7.76055,15.15126 4.08143,8.36869 7.42076,15.35567 7.42076,15.52664 0,0.17098 -0.0848,0.31088 -0.18852,0.31088 -0.10369,0 -3.0344,-3.5104 -6.51269,-7.80089 z m 5.18167,-26.98834 c 0,-0.0344 -0.19538,-0.44578 -0.43416,-0.91406 -0.23879,-0.46829 -0.43416,-1.05943 -0.43416,-1.31364 0,-0.25422 0.14723,-0.94167 0.32718,-1.52766 l 0.32717,-1.06545 -0.8156,-0.71431 c -0.44858,-0.39287 -1.83196,-1.40057 -3.07418,-2.23933 -1.24223,-0.83876 -3.12438,-1.95978 -4.18258,-2.49115 l -1.92399,-0.9661 -0.23304,0.60094 c -0.12817,0.33053 -0.48073,1.28464 -0.78346,2.12025 -0.30273,0.83561 -0.98074,2.37815 -1.50671,3.42787 -0.52595,1.04973 -1.10846,1.96698 -1.29446,2.03834 -0.18599,0.0714 -2.25622,-0.18855 -4.60049,-0.5776 -2.34427,-0.38905 -4.38689,-0.75516 -4.53915,-0.81358 -0.15226,-0.0584 -0.27684,-0.20654 -0.27684,-0.32917 0,-0.12263 0.42255,-1.11329 0.939,-2.20145 0.51645,-1.08818 1.35021,-2.45232 1.8528,-3.03146 0.54707,-0.63038 0.87178,-1.19656 0.80906,-1.41076 -0.0576,-0.1968 -0.26533,-0.99265 -0.4616,-1.76858 -0.19628,-0.77592 -0.42198,-1.52726 -0.50155,-1.66965 -0.0927,-0.16582 -2.32911,1.57696 -6.22119,4.84794 -3.34207,2.80874 -6.10724,5.19058 -6.14482,5.29294 -0.0375,0.10238 0.30433,0.28545 0.75977,0.40683 0.45546,0.12139 1.65842,0.41304 2.67325,0.64811 1.01485,0.23508 3.45698,0.72466 5.42697,1.08795 1.96999,0.36329 5.21187,0.90729 7.20419,1.20889 1.99232,0.30159 3.96313,0.54834 4.37957,0.54834 0.66216,0 0.8205,-0.11303 1.26186,-0.90082 0.27759,-0.49548 0.8466,-1.08745 1.26447,-1.31551 0.56922,-0.31064 1.07344,-0.3942 2.01039,-0.33312 1.06915,0.0697 1.35992,0.18745 2.00389,0.81151 0.4143,0.40148 0.86562,1.07885 1.00295,1.50525 0.13731,0.42642 0.29144,0.84856 0.34251,0.93808 0.0511,0.0895 1.16163,0.16279 2.4679,0.16279 1.30628,0 2.37505,-0.0281 2.37505,-0.0626 z m -90.684494,25.30731 c -0.173817,-0.0667 -0.269496,-0.54614 -0.266195,-1.33397 0.0034,-0.79398 0.19113,-1.68217 0.529871,-2.50595 0.288595,-0.70182 0.994495,-2.05402 1.568666,-3.00486 0.574171,-0.95083 1.793905,-2.72066 2.710519,-3.93294 0.916615,-1.21227 2.686942,-3.36803 3.934061,-4.79058 l 2.267486,-2.58644 -2.057065,-2.29697 c -1.131386,-1.26336 -2.775696,-3.37359 -3.65402,-4.68939 -0.878324,-1.31584 -2.185068,-3.62166 -2.903876,-5.12408 -0.718808,-1.5024 -1.645203,-3.74655 -2.058655,-4.987 -0.413452,-1.24043 -0.947642,-3.23203 -1.18709,-4.42575 -0.239447,-1.19373 -0.556072,-3.22426 -0.70361,-4.51231 l -0.26825,-2.34189 -4.789902,-2.43114 c -2.634447,-1.33713 -5.978218,-3.2238 -7.430604,-4.19261 -1.452386,-0.9688 -3.227255,-2.27155 -3.944153,-2.89498 -0.716899,-0.62343 -1.555553,-1.49722 -1.863676,-1.94177 -0.308123,-0.44455 -0.560223,-0.87627 -0.560223,-0.95938 0,-0.0832 0.128189,-0.15112 0.284864,-0.15112 0.156675,0 0.864892,0.43049 1.573818,0.95664 0.708925,0.52615 2.360724,1.60602 3.670664,2.3997 1.309939,0.79369 4.111439,2.3158 6.225555,3.38248 2.114116,1.06669 5.291656,2.58319 7.061201,3.37002 1.769546,0.78684 4.536106,1.96947 6.147912,2.62809 1.611808,0.65862 4.688894,1.86271 6.83797,2.67577 2.149076,0.81305 6.154172,2.25747 8.900216,3.20982 2.746044,0.95235 7.044189,2.37195 9.551446,3.15468 2.507258,0.78273 6.414664,1.95735 8.683144,2.61025 2.26847,0.65291 6.02757,1.68674 8.35356,2.29738 2.32599,0.61064 4.32653,1.20771 4.44564,1.32679 0.14405,0.14402 -3e-5,0.39516 -0.4302,0.74989 -0.35574,0.29334 -2.55165,1.98464 -4.8798,3.75844 -2.32817,1.77382 -5.84484,4.38189 -7.81482,5.7957 -1.97,1.41382 -6.21528,4.31007 -9.433975,6.43609 -3.218687,2.12603 -6.018835,3.86551 -6.222544,3.86551 -0.203708,0 -1.135739,-0.40485 -2.071188,-0.89965 -0.935449,-0.49482 -2.433453,-1.3901 -3.328902,-1.9895 -0.895449,-0.59941 -2.202739,-1.53751 -2.90509,-2.08467 l -1.277001,-0.99482 -1.622859,1.73635 c -0.892572,0.95496 -2.411187,2.713 -3.3747,3.90674 -0.963512,1.19371 -2.333417,3.04942 -3.04423,4.12377 -0.710814,1.07436 -1.526945,2.47629 -1.813628,3.11541 -0.286681,0.63913 -0.58064,1.59536 -0.653243,2.12496 -0.0769,0.56095 -0.277764,1.0373 -0.481178,1.14112 -0.192047,0.0981 -0.593389,0.23042 -0.891872,0.29424 -0.298482,0.0638 -0.664803,0.0691 -0.814044,0.0119 z m 27.737011,-20.24696 0.36771,-3.90163 0.891811,-1.14491 c 0.490493,-0.62971 1.508313,-1.87743 2.261818,-2.77272 1.180729,-1.40291 1.541618,-1.68717 2.612047,-2.0575 0.969857,-0.33553 1.242037,-0.52759 1.242037,-0.87643 0,-0.24572 -0.2198,-0.87008 -0.48843,-1.38746 l -0.488427,-0.94073 -8.900212,-2.90832 c -4.895117,-1.59957 -9.046744,-2.88072 -9.225833,-2.84701 -0.17909,0.0337 -0.354463,0.26198 -0.389718,0.50723 -0.04328,0.30108 0.89986,1.67 2.90333,4.21402 1.632086,2.07246 3.091964,4.06833 3.244189,4.43529 0.152216,0.36694 0.728196,3.10889 1.27995,6.09321 0.551762,2.98432 1.098585,5.64982 1.215169,5.92331 0.128125,0.30058 0.744156,0.74892 1.557276,1.13341 0.739914,0.34987 1.391258,0.59016 1.447438,0.534 0.0562,-0.0562 0.267607,-1.85787 0.469845,-4.00376 z M 112.97026,128.9133 c -3.16391,-0.82071 -7.24753,-1.92573 -9.07471,-2.45558 -1.82717,-0.52984 -3.37895,-1.02016 -3.44838,-1.08959 -0.0695,-0.0694 0.0461,-0.39787 0.25686,-0.72987 0.21072,-0.33201 0.60247,-0.84781 0.87057,-1.14625 0.26808,-0.29843 0.53562,-0.81464 0.5945,-1.14714 0.0738,-0.41704 -0.002,-0.6611 -0.2442,-0.78685 -0.19319,-0.10027 -0.98621,-0.33899 -1.76226,-0.53048 -0.776058,-0.1915 -2.192491,-0.45372 -3.147638,-0.58271 -1.131598,-0.15282 -1.831166,-0.35786 -2.007978,-0.58852 -0.149234,-0.1947 -0.271345,-0.77319 -0.271345,-1.28555 0,-0.89671 -0.03956,-0.9516 -1.058728,-1.46795 -0.582296,-0.29501 -2.072003,-0.98644 -3.310448,-1.53647 -1.238446,-0.55004 -2.828725,-1.13539 -3.533956,-1.30079 -1.105734,-0.25933 -1.385798,-0.25747 -2.034488,0.0135 -0.413734,0.17283 -1.204317,0.31566 -1.756853,0.3174 -0.991629,0.003 -1.031622,-0.0252 -3.094496,-2.18755 l -2.089883,-2.19073 -1.104806,0.55976 c -0.607644,0.30785 -1.254582,0.55975 -1.437641,0.55975 -0.269094,0 -0.332833,-0.30779 -0.332833,-1.60716 v -1.60717 l 1.356739,-1.19921 1.35674,-1.19922 2.121661,1.10831 c 1.237624,0.64651 2.193507,1.02454 2.294088,0.90727 0.09483,-0.11058 0.40355,-0.96045 0.686032,-1.88862 0.37967,-1.24749 0.76458,-1.98154 1.476033,-2.81489 0.529343,-0.62002 1.426253,-1.81399 1.993144,-2.65325 0.566882,-0.839265 1.397819,-1.965453 1.846513,-2.502621 0.448703,-0.537178 1.121199,-1.193426 1.494444,-1.458331 0.373246,-0.264905 1.541913,-0.730875 2.597037,-1.035493 1.055124,-0.304618 2.267714,-0.733025 2.694636,-0.952017 l 0.776227,-0.398152 -2.474329,-1.862302 -2.47433,-1.862292 -1.082583,1.23406 c -0.595417,0.678724 -1.44013,1.600316 -1.877123,2.04796 -0.437002,0.447643 -0.937902,0.8139 -1.113126,0.8139 -0.175224,0 -0.72046,-0.29107 -1.211641,-0.646809 -0.491182,-0.355759 -1.051529,-0.888628 -1.245216,-1.184198 -0.193687,-0.295539 -0.283982,-0.647649 -0.200659,-0.782436 0.08332,-0.134797 1.470705,-1.221611 3.083068,-2.415157 1.942811,-1.438144 2.858789,-2.242837 2.715779,-2.385822 -0.118692,-0.11867 -0.594065,-0.303508 -1.056384,-0.41075 -0.462327,-0.107252 -1.136402,-0.197326 -1.497947,-0.200176 -0.361552,-0.003 -0.9965,0.23216 -1.411006,0.522241 -0.414507,0.29008 -1.645191,0.745912 -2.734857,1.012957 l -1.981202,0.485527 -2.017625,-0.727396 -2.017625,-0.727396 -0.743055,0.853914 c -0.40868,0.46966 -1.356184,1.781766 -2.105565,2.915802 -0.749381,1.134046 -1.804418,2.892076 -2.344528,3.906742 -0.54011,1.014667 -1.331359,2.728814 -1.758331,3.809219 -0.426973,1.080416 -1.017775,2.887266 -1.312894,4.015266 -0.295119,1.128 -0.596557,2.53924 -0.669863,3.1361 l -0.133282,1.08521 0.508842,-0.59687 c 0.279862,-0.32827 0.577824,-0.59686 0.662135,-0.59686 0.08431,0 0.883251,1.45723 1.775419,3.23828 0.892165,1.78105 1.741258,3.31191 1.88687,3.40188 0.145612,0.09 0.823932,0.14819 1.507377,0.12937 1.132725,-0.0312 1.360634,0.047 2.576875,0.88467 0.733836,0.50541 1.694449,1.13463 2.134694,1.39828 0.440247,0.26363 1.338309,0.54446 1.995695,0.62407 0.657387,0.0795 1.366197,0.23359 1.575135,0.34219 0.208938,0.10861 0.379887,0.35696 0.379887,0.55189 0,0.19491 -0.109003,0.98024 -0.242229,1.74516 -0.133227,0.76491 -0.364195,1.43753 -0.513263,1.49473 -0.149068,0.0572 -1.529766,-0.34928 -3.068216,-0.90327 -1.53845,-0.55401 -4.875295,-1.83093 -7.41521,-2.83765 -2.539915,-1.00672 -5.460864,-2.21971 -6.490998,-2.69556 l -1.872971,-0.86516 0.148936,-2.22349 c 0.08192,-1.22292 0.32412,-3.27806 0.538235,-4.56697 0.214117,-1.28892 0.324869,-2.3833 0.246117,-2.43196 -0.07876,-0.0486 -1.043846,-0.20397 -2.144652,-0.34511 -1.99841,-0.25625 -2.00236,-0.25581 -2.587188,0.28928 -0.322148,0.30025 -0.799092,0.65553 -1.059877,0.78949 -0.260786,0.13396 -0.89574,0.24291 -1.41101,0.24213 -0.545094,-8.2e-4 -1.191483,-0.1693 -1.545773,-0.40286 -0.334906,-0.22077 -0.763525,-0.62212 -0.952489,-0.89186 -0.321197,-0.45849 -0.465318,-0.48445 -2.2131,-0.39858 -1.23743,0.0608 -2.364207,0.27016 -3.332607,0.61924 l -1.463077,0.52741 -0.575364,-0.57526 c -0.352077,-0.35202 -0.524248,-0.70845 -0.443649,-0.91845 0.07244,-0.18876 0.452473,-0.54028 0.84451,-0.78118 0.392037,-0.24088 1.060769,-0.53327 1.486073,-0.64975 0.425304,-0.11647 1.744055,-0.309786 2.930559,-0.429566 2.065686,-0.208544 2.184929,-0.249117 2.808514,-0.955366 0.35818,-0.405661 0.864605,-0.846006 1.125391,-0.978543 0.260785,-0.132528 0.876169,-0.240969 1.36752,-0.240969 0.49135,0 1.1821,0.149284 1.535001,0.331743 0.352901,0.182469 0.878129,0.70631 1.167174,1.164111 0.511354,0.809902 0.568445,0.836429 2.115332,0.98284 0.874388,0.0827 1.936765,0.20317 2.360838,0.26754 l 0.771041,0.11703 0.933175,-2.555887 c 0.891861,-2.442722 0.92035,-2.594976 0.643507,-3.439262 -0.159318,-0.485857 -1.298573,-2.9235 -2.53168,-5.416984 -1.233107,-2.493474 -2.319579,-4.44684 -2.414381,-4.340818 -0.0948,0.106022 -0.488394,1.413628 -0.874646,2.905783 -0.386252,1.492155 -0.791772,2.806501 -0.901154,2.920761 -0.125572,0.131168 -0.307829,0.09118 -0.494465,-0.108521 -0.162574,-0.173951 -3.588086,-7.07948 -7.61225,-15.345648 -4.024165,-8.266157 -7.283468,-15.200628 -7.242898,-15.409928 0.06159,-0.317759 0.168833,-0.273121 0.649972,0.270576 0.316915,0.358119 3.223651,3.92302 6.459416,7.922006 3.235763,3.998987 5.963627,7.298403 6.061919,7.332037 0.09829,0.03359 0.433038,-0.88108 0.743883,-2.032683 0.310845,-1.151623 0.613875,-2.142544 0.673399,-2.202053 0.05952,-0.05949 0.35911,0.08908 0.665742,0.330253 0.306633,0.241159 3.535935,3.28002 7.176225,6.753026 3.64029,3.473006 6.708119,6.314551 6.817397,6.314551 0.109278,0 0.96529,-0.756921 1.902248,-1.682063 0.936959,-0.925142 2.434393,-2.27879 3.32763,-3.008116 0.89324,-0.729335 2.481266,-1.884697 3.52895,-2.567461 1.047685,-0.682783 3.196758,-1.859782 4.775723,-2.615563 1.578965,-0.755771 3.982608,-1.723655 5.341426,-2.150842 1.358817,-0.427187 3.50789,-0.977363 4.775727,-1.222651 1.267829,-0.245258 3.605081,-0.526 5.193881,-0.623864 1.58881,-0.09788 4.07978,-0.100672 5.5355,-0.007 1.45572,0.09438 3.33056,0.285711 4.16631,0.425147 0.83575,0.139436 2.26355,0.438295 3.17289,0.664146 0.90934,0.225842 2.66767,0.76233 3.90741,1.192177 1.23974,0.429866 3.57281,1.45874 5.18462,2.286399 1.61181,0.827668 3.77696,2.113169 4.81145,2.856672 1.0345,0.743513 2.68404,2.035512 3.66566,2.871129 0.98163,0.835597 2.56225,2.396 3.5125,3.467537 0.95025,1.071557 2.2923,2.731913 2.98231,3.68971 0.69003,0.957796 1.75199,2.610664 2.35992,3.673052 0.60792,1.062398 1.13454,2.019295 1.17028,2.126457 0.0357,0.107151 1.47984,-0.485028 3.20915,-1.315966 1.72932,-0.830938 4.06108,-1.814849 5.18171,-2.186466 1.12062,-0.371606 2.6982,-0.788945 3.50574,-0.927391 0.98757,-0.169331 1.80606,-0.185209 2.50013,-0.04849 0.56755,0.111771 1.13499,0.368537 1.261,0.570582 0.16831,0.269854 0.1396,0.556335 -0.10817,1.079416 l -0.33729,0.712068 -1.82451,0.0135 c -1.50905,0.0112 -2.22223,0.149944 -4.12465,0.802473 -1.26508,0.433916 -3.522,1.368946 -5.01538,2.077845 -1.49338,0.708898 -2.78371,1.39969 -2.86741,1.535087 -0.0837,0.135387 0.25059,1.483947 0.74284,2.996768 0.49227,1.512829 1.08958,3.682119 1.32738,4.820639 0.33819,1.61923 0.37834,2.17094 0.18436,2.53333 -0.1364,0.25481 -2.37393,2.48592 -4.9723,4.95804 -2.59838,2.47209 -4.93475,4.6421 -5.19194,4.82221 -0.42712,0.29912 -0.46744,0.29352 -0.4655,-0.0647 8.2e-4,-0.21566 0.25066,-0.926 0.55445,-1.57851 0.33201,-0.71314 0.50332,-1.38161 0.42947,-1.6758 -0.0676,-0.26918 -0.30165,-0.58509 -0.52018,-0.70202 -0.21852,-0.11693 -1.01818,-1.59833 -1.77702,-3.29198 -0.81695,-1.82336 -1.67208,-3.38932 -2.09652,-3.83928 -0.39425,-0.41795 -0.71681,-0.83816 -0.71681,-0.93379 0,-0.0956 0.10342,-0.23778 0.22982,-0.31589 0.12641,-0.0781 0.60866,0.12047 1.07168,0.44129 0.65436,0.4534 1.13901,1.15633 2.17614,3.15623 0.73386,1.41511 1.46565,2.68193 1.62621,2.81516 0.21856,0.18136 0.46649,0.15197 0.98658,-0.11692 0.38205,-0.19755 1.14613,-0.49637 1.69795,-0.66406 0.80711,-0.24529 1.20491,-0.56067 2.03441,-1.61294 0.56713,-0.71943 1.03113,-1.48644 1.03113,-1.70448 0,-0.28441 -0.41405,-0.569 -1.46528,-1.00713 -0.80591,-0.33588 -1.59453,-0.71026 -1.7525,-0.83195 -0.15796,-0.12169 -0.47743,-0.59403 -0.70991,-1.04967 l -0.42271,-0.82842 0.60137,0.002 c 0.33076,6.8e-4 1.67231,0.33799 2.98121,0.74958 1.30891,0.41159 2.42722,0.70096 2.48515,0.64305 0.058,-0.058 -0.008,-0.76538 -0.14625,-1.57213 -0.13837,-0.80675 -0.54979,-2.379201 -0.91426,-3.49434 -0.36447,-1.11513 -1.05465,-2.863821 -1.53373,-3.885986 -0.47908,-1.022146 -1.52289,-2.840605 -2.31958,-4.041 -0.80529,-1.213372 -2.29069,-3.027462 -3.34504,-4.085251 l -1.89652,-1.902705 -1.41513,0.777727 c -0.99733,0.548106 -1.62636,0.75742 -2.13053,0.708979 -0.55073,-0.05289 -0.73134,-0.181159 -0.78475,-0.557095 -0.0381,-0.268584 -0.18467,-0.488087 -0.32561,-0.487767 -0.14094,3.3e-4 -2.11228,0.534739 -4.38074,1.187617 -2.98964,0.860413 -4.22902,1.314756 -4.50438,1.651268 -0.20894,0.255336 -0.37785,0.52669 -0.37537,0.602977 0.003,0.07629 0.63615,0.553605 1.40814,1.060659 l 1.40362,0.921912 0.65723,-1.301727 c 0.36148,-0.715958 0.79486,-1.301748 0.96307,-1.301748 0.16821,0 0.60859,0.254717 0.97862,0.566023 0.37004,0.311297 0.76863,0.745073 0.88579,0.963936 0.14908,0.278522 0.09,0.926161 -0.19694,2.158141 -0.22546,0.968114 -0.45638,1.806661 -0.51316,1.863431 -0.0568,0.05679 -1.15598,-0.283711 -2.44265,-0.75661 l -2.3394,-0.859833 -1.16244,0.434845 c -0.63933,0.239169 -1.44854,0.720917 -1.79823,1.070547 -0.3497,0.349641 -0.9366,1.237529 -1.30424,1.973113 -0.36763,0.735564 -0.66842,1.458011 -0.66842,1.605436 0,0.192487 -0.20693,0.221372 -0.73417,0.102482 -0.40379,-0.09108 -0.8543,-0.239789 -1.00112,-0.330513 -0.15061,-0.09308 -0.34954,-0.03459 -0.45644,0.134147 -0.10421,0.164512 -0.19098,0.654028 -0.19281,1.087804 -0.003,0.753291 0.0502,0.810411 1.18806,1.272172 0.68913,0.279643 1.40322,0.430297 1.6939,0.357349 0.30367,-0.07619 0.99637,-0.81576 1.75058,-1.86902 0.68644,-0.958606 1.28899,-1.742922 1.33901,-1.742922 0.0501,0 0.65542,0.250477 1.34533,0.556605 0.68993,0.306127 1.87302,0.70081 2.62914,0.87708 0.7561,0.17626 1.58643,0.258785 1.84516,0.183388 0.25874,-0.07539 1.05654,-0.360598 1.7729,-0.633761 0.71636,-0.273174 1.70331,-0.556195 2.19324,-0.628953 0.79687,-0.11833 1.01996,-0.03979 2.11651,0.745323 0.67416,0.482667 1.22575,1.018716 1.22575,1.191196 0,0.222912 -0.25968,0.313617 -0.89782,0.313617 h -0.89783 l 0.13025,0.950107 c 0.10133,0.73906 0.0476,1.02338 -0.24183,1.27998 -0.20466,0.18144 -1.04498,0.63291 -1.8674,1.00328 -1.33405,0.60077 -1.71738,0.67338 -3.55468,0.67338 h -2.05939 l -1.00396,-1.10767 -1.00396,-1.10766 -2.67391,0.15369 c -1.47066,0.0845 -2.90192,0.21671 -3.18059,0.29375 -0.27867,0.077 -1.0047,0.59979 -1.61338,1.16166 -0.94479,0.87211 -1.1067,1.13827 -1.1067,1.81924 0,0.4387 -0.19113,1.10684 -0.42473,1.48474 -0.2336,0.37791 -0.81971,1.00446 -1.30247,1.39236 l -0.87775,0.70526 0.0112,1.56331 c 0.006,0.85983 0.0844,2.22205 0.17394,3.02715 0.11922,1.07189 0.27608,1.54729 0.58582,1.7755 0.23266,0.17141 0.95679,0.63587 1.60917,1.03213 l 1.18616,0.72049 h 3.69811 3.6981 l 1.57066,3.65899 c 1.20231,2.80088 1.62157,4.04795 1.78774,5.31751 l 0.21707,1.65853 -0.99394,0.92174 c -0.54666,0.50697 -1.75675,1.45922 -2.6891,2.11615 -0.95467,0.67268 -1.91778,1.18747 -2.2048,1.17851 -0.2803,-0.009 -3.09829,-0.6874 -6.26222,-1.50813 z m -3.99947,-35.861326 c 0.56029,-0.746072 1.21177,-1.527429 1.44775,-1.736333 0.23597,-0.208904 0.638,-0.378675 0.89341,-0.377275 0.25541,0.002 1.42231,-0.263096 2.5931,-0.58775 2.01732,-0.559384 2.122,-0.617015 2.00039,-1.101412 -0.0967,-0.385264 0.0874,-0.782066 0.74758,-1.611034 0.48174,-0.604937 0.87588,-1.227631 0.87588,-1.383784 0,-0.171211 -0.39833,-0.343641 -1.00348,-0.434366 -0.55191,-0.08269 -2.43234,-0.102602 -4.17875,-0.04409 l -3.17528,0.106352 -2.4964,1.039732 c -1.37302,0.571862 -2.5892,1.122898 -2.70263,1.224531 -0.11773,0.105512 0.14263,0.184788 0.60683,0.184788 0.55531,0 0.96622,0.154824 1.29618,0.488357 0.26571,0.268584 0.62137,0.911164 0.79033,1.427956 0.24821,0.75919 0.25777,1.124487 0.0497,1.902224 -0.14162,0.52943 -0.2575,1.198226 -0.2575,1.486186 0,0.316126 0.15051,0.562894 0.37989,0.622824 0.20893,0.05469 0.54513,0.110581 0.74708,0.124439 0.21393,0.0147 0.7924,-0.541028 1.38591,-1.331333 z m -7.98592,-5.237855 c 1.04019,-0.40384 2.47736,-1.003018 3.19372,-1.331522 1.20551,-0.552805 1.26207,-0.609636 0.75977,-0.763399 -0.29848,-0.09139 -1.58904,-0.17587 -2.86792,-0.187768 l -2.32522,-0.0217 -0.226186,0.839827 c -0.124396,0.461901 -0.421218,1.087744 -0.659602,1.390742 -0.238384,0.302998 -0.433423,0.608756 -0.433423,0.679454 0,0.07069 0.150217,0.128558 0.333807,0.128558 0.183591,0 1.184862,-0.330414 2.225054,-0.734265 z M 92.42772,70.409974 c -0.402125,-0.426317 -0.731136,-0.99613 -0.731136,-1.266274 0,-0.270133 0.373346,-1.020125 0.829668,-1.666615 0.456322,-0.646499 1.83314,-2.540365 3.059599,-4.20858 1.226451,-1.668225 2.425021,-3.415514 2.663481,-3.882852 0.285885,-0.560285 0.40026,-1.116606 0.33579,-1.633252 -0.05376,-0.430947 -0.372356,-1.809063 -0.707944,-3.062474 -0.335588,-1.253414 -0.707339,-2.405958 -0.826123,-2.561208 -0.118785,-0.155252 -0.458481,-0.25292 -0.754891,-0.217041 -0.468242,0.05667 -0.635981,0.334656 -1.27906,2.119684 -0.407081,1.129946 -0.844267,2.179882 -0.971519,2.333194 -0.151973,0.183079 -0.799621,0.277421 -1.887161,0.274885 -0.910669,-0.0025 -2.514918,-0.09423 -3.564993,-0.20469 -1.499619,-0.157759 -2.128333,-0.335455 -2.930559,-0.828275 -0.561733,-0.345081 -1.048983,-0.769689 -1.082768,-0.943579 -0.03377,-0.173888 0.968528,-1.716854 2.227386,-3.428814 2.103024,-2.859984 2.257786,-3.136196 1.906598,-3.402683 -0.210226,-0.159517 -0.505638,-0.293136 -0.656476,-0.296932 -0.150839,-0.0038 -1.469589,1.127639 -2.930559,2.514303 -1.460966,1.386663 -3.047044,2.703044 -3.524616,2.925291 -0.661976,0.308061 -1.358366,0.401591 -2.930558,0.393596 -1.134235,-0.0057 -2.243558,-0.08179 -2.465164,-0.168932 -0.331546,-0.130378 0.370229,-0.864981 3.96168,-4.14701 2.40053,-2.193711 4.364602,-4.065482 4.364602,-4.159491 0,-0.09401 -0.204036,-0.280103 -0.453415,-0.413543 -0.384904,-0.205959 -0.639112,-0.113814 -1.682359,0.609822 -0.675919,0.468843 -3.57339,2.454705 -6.438824,4.413028 l -5.209881,3.560585 H 65.755715 60.762912 L 59.2871,52.363208 c -0.811696,-0.3844 -2.057183,-1.106648 -2.76775,-1.604996 -0.710566,-0.498349 -1.290441,-1.062857 -1.288612,-1.254464 0.0018,-0.191605 0.07689,-0.464052 0.166818,-0.605438 0.08992,-0.141386 7.111623,-3.765304 15.603777,-8.053151 8.492154,-4.287846 15.749558,-7.857929 16.127558,-7.933516 0.40241,-0.08048 0.980826,-0.0148 1.3955,0.158432 0.389525,0.162726 1.238202,0.666697 1.885943,1.119935 0.647741,0.453237 1.303823,0.977868 1.457971,1.165846 0.192293,0.2345 0.237409,0.684688 0.143741,1.43425 -0.110158,0.881526 -0.05947,1.180897 0.262433,1.550435 0.248749,0.285537 1.052814,0.624499 2.135582,0.900272 0.955147,0.24327 2.301373,0.554499 2.991618,0.691625 0.83013,0.164915 1.42212,0.42952 1.748645,0.781606 l 0.493651,0.532288 1.047215,-0.463152 1.04722,-0.463152 1.57368,0.798625 1.57369,0.798628 1.32257,-0.667519 c 0.72741,-0.367135 1.62326,-0.667519 1.99078,-0.667519 0.36751,0 0.9663,0.154123 1.33063,0.342495 0.62189,0.321541 0.68047,0.31673 0.95742,-0.07861 0.16226,-0.231608 0.56753,-0.523744 0.90063,-0.649192 0.33307,-0.125449 1.58245,-0.4428 2.77638,-0.705224 1.19393,-0.262425 2.48826,-0.60777 2.87629,-0.767434 0.7039,-0.289639 0.70552,-0.293904 0.71284,-1.874924 l 0.008,-1.584624 1.75159,-1.17564 c 1.44046,-0.966812 1.9115,-1.173413 2.65187,-1.163094 0.73988,0.01032 3.6824,1.418472 16.51618,7.90392 8.58875,4.340256 15.71977,8.069961 15.84672,8.288235 0.19319,0.332172 0.0758,0.535649 -0.72005,1.248305 -0.52297,0.468295 -1.54866,1.142668 -2.27931,1.498608 -0.73066,0.355941 -1.96343,0.819725 -2.73949,1.030628 -1.10928,0.301468 -2.24653,0.382254 -5.31841,0.377799 -2.72064,-0.0039 -4.0552,-0.08836 -4.39398,-0.277943 -0.26761,-0.149751 -3.14933,-2.087695 -6.4038,-4.306542 -3.25449,-2.218845 -6.14066,-4.137717 -6.4137,-4.264156 -0.38507,-0.178317 -0.57127,-0.155076 -0.82999,0.103594 -0.29999,0.299948 -0.20642,0.453023 0.93061,1.522286 0.69528,0.653843 2.68057,2.48836 4.41178,4.076707 1.7312,1.588344 3.18426,2.983873 3.22902,3.101175 0.0517,0.135675 -0.896,0.178721 -2.60494,0.118307 -1.99871,-0.07066 -2.87128,-0.192386 -3.40885,-0.475556 -0.39739,-0.209326 -1.85075,-1.440357 -3.22968,-2.735625 -1.37895,-1.295267 -2.6855,-2.401658 -2.90345,-2.458647 -0.21797,-0.05698 -0.56388,0.0189 -0.7687,0.168648 -0.33858,0.24753 -0.25238,0.43766 0.94888,2.093195 0.7267,1.001514 1.7243,2.357013 2.21689,3.012221 0.59999,0.798063 0.8746,1.369339 0.83194,1.730708 -0.0489,0.414395 -0.36178,0.691653 -1.34976,1.19617 -1.26847,0.64775 -1.33232,0.656745 -4.66468,0.656745 h -3.37861 l -0.77731,-2.12033 c -0.42752,-1.16618 -0.88139,-2.224387 -1.00859,-2.351569 -0.1272,-0.127183 -0.45605,-0.198556 -0.73078,-0.158605 -0.44567,0.0648 -0.58916,0.400152 -1.33126,3.111216 -0.81085,2.962262 -0.82318,3.061348 -0.49054,3.945028 0.18768,0.498548 1.80117,2.891185 3.58554,5.31697 1.78438,2.425796 3.24433,4.574198 3.24433,4.774234 0,0.200036 -0.2485,0.658978 -0.55224,1.019886 -0.30372,0.360888 -0.72828,0.712048 -0.94347,0.780327 -0.21519,0.06829 -1.11354,-0.0277 -1.99635,-0.213434 -1.24516,-0.261885 -1.76818,-0.493976 -2.33235,-1.034983 -0.39998,-0.383565 -1.02336,-1.279791 -1.3853,-1.99161 -0.36192,-0.711818 -0.89157,-1.664095 -1.177,-2.116148 -0.29796,-0.471939 -0.69134,-0.82194 -0.9238,-0.82194 -0.22267,0 -0.51602,0.133928 -0.6519,0.29762 -0.18707,0.225371 -0.14119,0.739133 0.18897,2.116158 0.23982,1.000189 0.43672,1.891787 0.43755,1.981311 8.2e-4,0.08949 -1.75681,0.162782 -3.90589,0.162782 -2.73559,0 -3.90741,-0.07269 -3.90741,-0.242698 0,-0.133487 0.16946,-1.065818 0.37658,-2.071856 0.33138,-1.609635 0.3379,-1.853603 0.0543,-2.032913 -0.17727,-0.11207 -0.48204,-0.205244 -0.67728,-0.207074 -0.22948,-0.003 -0.863965,0.909714 -1.794802,2.579449 -0.79191,1.420527 -1.609029,2.651657 -1.815812,2.735832 -0.206791,0.08419 -1.052461,0.386954 -1.879281,0.672855 -0.826812,0.285872 -1.645602,0.519772 -1.819533,0.519772 -0.17393,0 -0.645246,-0.348791 -1.04737,-0.775088 z m 11.04571,-31.14248 c -0.6867,-0.348219 -1.52108,-0.634361 -1.85416,-0.635874 -0.33309,-0.0015 -1.00193,0.199402 -1.48631,0.446475 -0.48439,0.247074 -0.932606,0.397334 -0.996034,0.333913 -0.06342,-0.06342 0.287935,-1.43515 0.780805,-3.048288 0.492879,-1.613139 0.895829,-3.106343 0.895429,-3.318232 -4.7e-4,-0.255064 -0.60566,-0.729864 -1.790894,-1.405031 -0.984598,-0.560879 -2.058823,-1.120055 -2.387154,-1.242614 -0.328331,-0.122561 -0.596963,-0.306243 -0.596963,-0.408182 0,-0.101938 0.36955,-0.714784 0.821218,-1.361879 l 0.821209,-1.176537 1.638764,-0.06274 c 0.90132,-0.0345 1.89538,0.03481 2.20901,0.154035 0.33071,0.125716 0.76133,0.591264 1.02516,1.108316 0.42506,0.833048 0.50042,0.881792 1.14853,0.742868 0.38149,-0.08178 0.7669,-0.191794 0.85644,-0.244488 0.0895,-0.05268 0.16281,-0.191744 0.16281,-0.309003 0,-0.117258 -0.4917,-0.5188 -1.09267,-0.892316 -0.7663,-0.476281 -1.00944,-0.731912 -0.81404,-0.855877 0.15324,-0.09721 0.62052,-0.176488 1.03839,-0.17616 0.50687,3.98e-4 1.31896,0.326386 2.43963,0.979302 1.00178,0.583649 1.80168,1.217233 1.98166,1.569629 0.16599,0.325009 0.82577,2.658973 1.46616,5.186588 0.64039,2.527615 1.10564,4.65436 1.03389,4.726102 -0.0718,0.07175 -0.59197,-0.06736 -1.15603,-0.309098 -0.56407,-0.241746 -1.27458,-0.439538 -1.57892,-0.439538 -0.30435,0 -0.87889,0.20116 -1.27677,0.447024 -0.39788,0.245864 -1.01979,0.532007 -1.38202,0.635874 -0.53483,0.15336 -0.89321,0.06988 -1.90714,-0.444275 z M 133.8171,26.246362 c -1.83066,-0.698081 -3.42644,-1.367193 -3.54618,-1.486916 -0.14557,-0.145543 0.42271,-1.921362 1.71484,-5.358799 1.06291,-2.827618 2.04804,-5.29838 2.1892,-5.490582 0.23198,-0.315892 0.46137,-0.280257 2.38786,0.370962 1.17217,0.396233 2.71734,0.975476 3.4337,1.287207 0.71635,0.31173 1.42184,0.656491 1.56773,0.766132 0.20683,0.155432 0.19334,0.371461 -0.0612,0.980578 -0.17955,0.429676 -0.36998,0.824736 -0.42316,0.877911 -0.0532,0.05317 -1.2087,-0.308067 -2.56783,-0.802757 -1.35911,-0.494691 -2.58736,-0.899437 -2.72945,-0.899437 -0.14209,0 -0.38819,0.317422 -0.54687,0.705384 -0.15869,0.387961 -0.35172,0.912688 -0.42893,1.16606 -0.12754,0.418519 0.0985,0.554094 2.4704,1.481529 2.10955,0.824864 2.61079,1.103092 2.61079,1.449214 0,0.235598 -0.14758,0.713698 -0.32797,1.062445 -0.29873,0.577598 -0.38092,0.613332 -0.92257,0.401128 -0.32705,-0.128126 -1.50027,-0.563807 -2.60716,-0.968178 l -2.01254,-0.73522 -0.42879,0.703138 c -0.23583,0.386724 -0.42915,0.962486 -0.4296,1.279471 -7.3e-4,0.526614 0.1592,0.634227 1.85382,1.247306 1.02005,0.369033 2.14343,0.820286 2.4964,1.002785 0.35297,0.1825 0.64177,0.469455 0.64177,0.637678 0,0.168222 -0.0902,0.543069 -0.20044,0.83299 -0.11025,0.289922 -0.33655,0.57935 -0.5029,0.64317 -0.16634,0.06382 -1.80025,-0.455118 -3.63091,-1.153199 z m -63.163659,0.68743 c -0.13161,-0.245872 -1.019029,-2.656287 -1.972045,-5.356478 -0.953015,-2.700191 -1.677921,-4.998147 -1.610901,-5.106567 0.06702,-0.108421 0.212749,-0.197127 0.323846,-0.197127 0.111096,0 1.634216,0.683679 3.384711,1.519288 1.750494,0.835609 3.316666,1.519288 3.48038,1.519288 0.170075,0 0.980531,-1.42852 1.890789,-3.332725 0.876219,-1.832998 1.701404,-3.399634 1.833744,-3.481409 0.144656,-0.08938 0.380535,0.179398 0.591455,0.673969 0.192961,0.452459 0.645604,1.604003 1.005873,2.558984 0.360271,0.954982 1.025769,2.810685 1.478886,4.123785 0.453117,1.3131 0.858175,2.631626 0.900131,2.930058 0.0629,0.447378 -0.07232,0.615137 -0.770449,0.955915 -0.746414,0.364343 -0.87501,0.374597 -1.085393,0.08655 -0.131262,-0.17972 -0.665704,-1.56215 -1.187649,-3.072068 -0.521946,-1.509916 -1.014268,-2.745304 -1.09405,-2.745304 -0.07978,0 -0.625694,0.976686 -1.213135,2.170413 -0.587442,1.193728 -1.169657,2.166464 -1.293812,2.161636 -0.124155,-0.0049 -1.153747,-0.441087 -2.287981,-0.969467 -1.134234,-0.528381 -2.095151,-0.865238 -2.13537,-0.748574 -0.04022,0.116665 0.369273,1.470771 0.909982,3.009124 0.917033,2.609025 0.958421,2.819244 0.61582,3.127895 -0.202007,0.181987 -0.627893,0.395905 -0.946414,0.475371 -0.452074,0.112786 -0.631627,0.0464 -0.818418,-0.302555 z m 55.230949,-4.962839 c -0.58171,-0.805766 -1.8302,-2.570375 -2.77443,-3.921354 -0.94422,-1.350979 -1.78034,-2.394302 -1.85802,-2.318497 -0.0777,0.07581 -0.48314,1.522993 -0.90102,3.21597 -0.67802,2.746938 -0.80648,3.071646 -1.19393,3.017772 -0.23878,-0.0332 -0.65395,-0.108317 -0.92258,-0.166917 -0.32912,-0.07179 -0.48814,-0.264484 -0.48754,-0.590754 4.9e-4,-0.266314 0.28962,-1.885274 0.6425,-3.59769 0.35289,-1.712415 0.84773,-3.964059 1.09966,-5.003652 0.25192,-1.039596 0.53799,-2.019504 0.6357,-2.177576 0.0977,-0.158073 0.28336,-0.222088 0.41256,-0.142255 0.12918,0.07984 1.40786,1.794451 2.8415,3.810267 1.43363,2.015812 2.69941,3.722462 2.81284,3.79255 0.11342,0.07009 0.25864,-0.0449 0.32269,-0.255539 0.0641,-0.210635 0.31844,-1.310825 0.56532,-2.444866 0.24687,-1.13404 0.55098,-2.379315 0.67578,-2.767276 0.1828,-0.568269 0.34216,-0.705385 0.81983,-0.705385 0.3261,0 0.76827,0.128208 0.9826,0.284905 0.37165,0.271707 0.3729,0.369724 0.027,2.116152 -0.19946,1.007187 -0.70863,3.345112 -1.13147,5.195388 -0.42284,1.850277 -0.85936,3.535061 -0.97003,3.743963 -0.11068,0.208902 -0.27775,0.379823 -0.37127,0.379823 -0.0935,0 -0.646,-0.659264 -1.22771,-1.465029 z m -40.81586,0.325561 c -0.05611,-0.149215 0.714479,-2.886293 1.7125,-6.082396 0.998021,-3.196103 1.886875,-5.881989 1.975235,-5.968635 0.08835,-0.08665 0.447821,0.184299 0.798815,0.602103 0.350985,0.417806 1.891747,2.51768 3.423907,4.666388 1.532168,2.148709 2.958186,4.17838 3.168942,4.510381 0.210756,0.332 0.328851,0.657963 0.262441,0.724362 -0.06644,0.0664 -0.494802,0.209436 -0.951989,0.317859 -0.797681,0.189173 -0.862898,0.161257 -1.615337,-0.691464 L 93.058946,19.486514 91.5149,19.726041 c -0.849231,0.13174 -2.016831,0.340901 -2.594667,0.464805 -0.940439,0.201654 -1.080492,0.309646 -1.335491,1.029823 -0.156677,0.442498 -0.382116,0.92663 -0.500959,1.075845 -0.118843,0.149217 -0.597929,0.271302 -1.064633,0.271302 -0.479674,0 -0.89292,-0.117937 -0.95062,-0.271302 z m 6.080937,-4.881428 c 0.222936,-0.126764 0.113963,-0.427671 -0.472332,-1.304249 -0.419169,-0.626705 -0.840521,-1.139467 -0.936331,-1.139467 -0.0958,0 -0.329902,0.456908 -0.520221,1.015351 -0.19031,0.558441 -0.346021,1.206562 -0.346021,1.44027 0,0.379742 0.105529,0.410458 0.992552,0.288898 0.545908,-0.07482 1.122963,-0.210173 1.282353,-0.300803 z m 21.766533,3.70087 c -0.24538,-0.06411 -0.37708,-0.304974 -0.37195,-0.680207 0.004,-0.319522 0.28405,-2.90673 0.6215,-5.749352 0.33744,-2.842621 0.71732,-5.272157 0.84415,-5.3989683 0.13404,-0.1340151 0.54677,-0.1712608 0.98564,-0.088945 0.41526,0.077887 0.79899,0.2610493 0.85271,0.4070184 0.0538,0.1459691 -0.18163,2.7505379 -0.52301,5.7879299 -0.40056,3.563855 -0.71649,5.58335 -0.89077,5.69401 -0.14855,0.09431 -0.46545,0.161645 -0.70424,0.149625 -0.23878,-0.01202 -0.6051,-0.06652 -0.81403,-0.121111 z M 99.887836,20.681208 c -0.35637,-0.09289 -0.379286,-0.515053 -0.325618,-5.99772 l 0.05771,-5.8977936 3.525642,-0.05963 c 3.16913,-0.053601 3.61179,-0.015687 4.37755,0.3749089 0.46856,0.2389952 1.04057,0.7053365 1.27115,1.0363137 0.23058,0.330978 0.53186,0.933775 0.66952,1.339549 0.13765,0.405774 0.25027,1.034202 0.25027,1.396504 0,0.362303 -0.20413,1.080361 -0.45364,1.595685 -0.2495,0.515324 -0.77595,1.205422 -1.16987,1.533553 l -0.71621,0.596602 1.08903,1.923441 c 0.86664,1.530653 1.02796,1.962117 0.78998,2.112829 -0.16448,0.104162 -0.65024,0.190883 -1.07945,0.192711 -0.47656,0.002 -0.90848,-0.144559 -1.10935,-0.376498 -0.18092,-0.208904 -0.73526,-1.083858 -1.23187,-1.944344 -0.79951,-1.385311 -0.99322,-1.581456 -1.69112,-1.71236 -0.4335,-0.08131 -1.13979,-0.06096 -1.56951,0.04523 l -0.78135,0.193071 -0.0611,1.62781 c -0.0455,1.211204 -0.15331,1.697244 -0.42138,1.899111 -0.19815,0.149217 -0.51255,0.259973 -0.69867,0.246125 -0.18612,-0.01385 -0.5109,-0.07015 -0.721736,-0.125102 z m 6.866424,-6.593755 c 0.41428,-0.32582 0.57197,-0.650026 0.57197,-1.175976 0,-0.399376 -0.0606,-0.884244 -0.13485,-1.077481 -0.0742,-0.193237 -0.41121,-0.494231 -0.74899,-0.668875 -0.39793,-0.205745 -1.26486,-0.317535 -2.46246,-0.317535 -1.6052,0 -1.87787,0.05521 -2.07303,0.419815 -0.12359,0.230897 -0.22472,0.906589 -0.22472,1.501537 0,0.594948 0.0593,1.236214 0.13178,1.425037 0.10768,0.280601 0.5187,0.343313 2.25004,0.343313 1.81431,0 2.20036,-0.06455 2.69026,-0.449835 z"
       id="path1" /></g></svg>
